<svg width="512" height="512" viewBox="0 0 512 512" fill="none" xmlns="http://www.w3.org/2000/svg">
  <rect width="512" height="512" fill="#1f2937" rx="128"/>
  <path d="M256 128C256 128 192 150.4 128 166.4V326.4C128 326.4 192 310.4 256 310.4C320 310.4 384 326.4 384 326.4V166.4C384 166.4 320 150.4 256 150.4V128Z" fill="white"/>
  <path d="M256 176C229.5 176 203 180.1 176.5 188.1V288C203 280 229.5 276 256 276C282.5 276 309 280 335.5 288V188.1C309 180.1 282.5 176 256 176Z" fill="#1f2937"/>
  <path d="M241 220L241 244L217 244L217 268L241 268L241 292L265 292L265 268L289 268L289 244L265 244L265 220L241 220Z" fill="white"/>
</svg> 